<?xml version="1.0" encoding="UTF-8"?>
<svg version="1.1" xmlns="http://www.w3.org/2000/svg" width="48" height="48">
<path d="M0 0 C3.1875 1.5625 3.1875 1.5625 6 4 C7.11375 4.81597656 7.11375 4.81597656 8.25 5.6484375 C16.08496657 11.39910206 16.08496657 11.39910206 18 16 C18.35428906 19.7794582 18.28210767 23.52091574 18.1875 27.3125 C18.16719727 28.85260742 18.16719727 28.85260742 18.14648438 30.42382812 C18.11123883 32.94975909 18.061967 35.4746066 18 38 C14.45861382 38.11681812 10.9177276 38.187455 7.375 38.25 C6.37597656 38.28351562 5.37695312 38.31703125 4.34765625 38.3515625 C-1.81048689 38.43312731 -5.30857513 38.09930328 -10 34 C-10.66 33.34 -11.32 32.68 -12 32 C-14.44012949 31.75712511 -14.44012949 31.75712511 -17.125 31.875 C-18.03507812 31.89304687 -18.94515625 31.91109375 -19.8828125 31.9296875 C-20.93082031 31.96449219 -20.93082031 31.96449219 -22 32 C-22.11681812 28.45861382 -22.187455 24.9177276 -22.25 21.375 C-22.28351562 20.37597656 -22.31703125 19.37695312 -22.3515625 18.34765625 C-22.43315123 12.18770715 -22.1132688 8.68372214 -18 4 C-12.72707915 -1.00927481 -6.89411047 -0.92493598 0 0 Z M-16 8 C-19.34302923 13.01454385 -18.30122871 18.81609182 -17.5 24.625 C-17.335 25.40875 -17.17 26.1925 -17 27 C-10.67958056 28.33061462 -3.70464469 29.63405617 2 26.1875 C5.98148307 21.83275289 6.43214912 19.14071498 6.32421875 13.4453125 C5.86768231 10.00203768 4.53159355 8.31459982 2 6 C-3.92137701 2.05241533 -11.14654762 2.69153646 -16 8 Z M10 13 C9.97421875 13.58007812 9.9484375 14.16015625 9.921875 14.7578125 C9.52557473 20.21594798 8.67345809 23.71429889 5 28 C2.5 29.75 2.5 29.75 0 31 C-0.763125 31.391875 -1.52625 31.78375 -2.3125 32.1875 C-2.869375 32.455625 -3.42625 32.72375 -4 33 C0.88867901 35.44433951 7.85153098 34.05609621 13 33 C14.1067514 27.74293086 14.70502594 22.34720976 14 17 C12.20808542 14.36483958 12.20808542 14.36483958 10 13 Z " fill="#DFB684" transform="translate(26,5)"/>
</svg>
