<?xml version="1.0" encoding="UTF-8"?>
<svg version="1.1" xmlns="http://www.w3.org/2000/svg" width="512" height="512">
<path d="M0 0 C0.76441406 0.42410156 1.52882813 0.84820313 2.31640625 1.28515625 C8.31003428 4.92595568 12.54091735 9.65337811 17 15 C17.99 15.99 17.99 15.99 19 17 C19.53367187 16.49210937 20.06734375 15.98421875 20.6171875 15.4609375 C31.00706376 5.86198608 41.81423757 -0.740059 56.328125 -0.2890625 C66.13242003 0.77163609 73.18780717 5.46849394 79.45703125 12.9140625 C86.30302367 22.16915098 86.30833692 35.13440215 84.68359375 46.14404297 C80.93051269 65.46056817 71.98670549 83.7946094 61 100 C62.7015625 100.2784375 62.7015625 100.2784375 64.4375 100.5625 C93.02911829 107.01578062 119.92938867 126.74701814 135.77978516 151.06103516 C149.54645304 172.93676071 157.06785314 198.65373783 157.203125 224.52734375 C157.21018463 225.42474777 157.21724426 226.32215179 157.22451782 227.24674988 C157.34060095 246.36654767 157.24691137 265.10598542 154 284 C153.69400879 285.83908936 153.69400879 285.83908936 153.38183594 287.71533203 C151.15437305 301.06721595 148.69660604 314.37562209 146.16015625 327.671875 C139.63655997 361.95067679 135.20998088 395.14870553 140.3125 429.99609375 C142.77021396 447.09337494 142.77021396 447.09337494 138.875 453.1875 C135.08670339 457.36623386 131.18017309 459.14051814 125.56640625 459.421875 C118.76631641 459.33244071 113.55254843 456.39435374 107.625 453.3125 C105.85827729 452.42883062 104.09152104 451.54522299 102.32310486 450.66494751 C101.0983232 450.05420868 99.87474983 449.44104112 98.65235901 448.82553101 C92.33020968 445.64263976 85.94368323 442.60354639 79.52923584 439.61166382 C77.72073812 438.76555059 75.91719647 437.90886999 74.11376953 437.05200195 C73.00759277 436.53468506 71.90141602 436.01736816 70.76171875 435.484375 C69.307052 434.79939941 69.307052 434.79939941 67.82299805 434.10058594 C63.70381297 432.49466305 60.52335752 431.48093669 56.23324585 432.94273376 C55.28792999 433.44237137 54.34261414 433.94200897 53.36865234 434.45678711 C52.28667572 435.0174437 51.2046991 435.57810028 50.0899353 436.15574646 C48.93361603 436.77337357 47.77729675 437.39100067 46.5859375 438.02734375 C45.36881327 438.65863933 44.15058052 439.28780185 42.93130493 439.91493225 C37.77206798 442.57369215 32.63398986 445.27227326 27.50146484 447.98217773 C24.35381132 449.64218301 21.19432103 451.27765904 18.02708817 452.89996529 C16.25619348 453.81642327 14.49970149 454.76054454 12.7437439 455.70530701 C5.403916 459.46432082 -0.74542816 461.62274663 -9 460 C-13.64031844 458.35519461 -17.88074064 456.16963091 -22.2109375 453.83984375 C-23.43361219 453.2070958 -24.65765244 452.57698039 -25.88296509 451.94935608 C-29.07733706 450.30700853 -32.25743957 448.63900642 -35.43371582 446.9619751 C-40.53417152 444.27030847 -45.64730724 441.60404571 -50.77580643 438.96621895 C-52.55461709 438.04358896 -54.32241914 437.09983337 -56.0899353 436.15574646 C-57.17191193 435.59508987 -58.25388855 435.03443329 -59.36865234 434.45678711 C-60.3139682 433.95714951 -61.25928406 433.4575119 -62.23324585 432.94273376 C-66.64563055 431.43927382 -69.84683555 432.50399025 -74.02246094 434.30004883 C-75.6123584 435.12025513 -75.6123584 435.12025513 -77.234375 435.95703125 C-77.82167389 436.25642609 -78.40897278 436.55582092 -79.0140686 436.86428833 C-80.27458963 437.50722077 -81.53342951 438.15345814 -82.79071045 438.80270386 C-86.12822053 440.5228196 -89.48272428 442.2091961 -92.8359375 443.8984375 C-93.51657257 444.24186691 -94.19720764 444.58529633 -94.89846802 444.93913269 C-101.68450978 448.35741641 -108.50525451 451.69024636 -115.375 454.9375 C-116.43041992 455.45094971 -117.48583984 455.96439941 -118.57324219 456.4934082 C-125.20186444 459.5933903 -130.10724193 461.28714714 -137.390625 459.37109375 C-141.35811279 457.3790148 -144.40333162 455.38256289 -146.37890625 451.203125 C-148.34934247 444.21365314 -147.22949939 436.99370693 -145.91650391 429.98144531 C-139.38221214 393.99304823 -145.85525147 357.79272819 -152.75482178 322.44317627 C-170.19349937 233.090129 -170.19349937 233.090129 -159 191 C-158.76394043 190.10958008 -158.52788086 189.21916016 -158.28466797 188.30175781 C-152.97931492 169.16691257 -144.20409295 151.86675855 -131 137 C-130.21109375 136.11054688 -129.4221875 135.22109375 -128.609375 134.3046875 C-110.91228884 115.61140775 -86.115296 103.01341089 -61 98 C-61.39832031 96.89205078 -61.39832031 96.89205078 -61.8046875 95.76171875 C-62.15789062 94.74722656 -62.51109375 93.73273438 -62.875 92.6875 C-63.22304687 91.70136719 -63.57109375 90.71523437 -63.9296875 89.69921875 C-66.51730499 80.75588385 -67.36227891 72.10095583 -67.3125 62.8125 C-67.30512817 61.17438354 -67.30512817 61.17438354 -67.29760742 59.50317383 C-67.02122649 40.29965959 -62.22761665 21.68721548 -48.875 7.25 C-36.3951894 -4.70010726 -15.3573415 -8.91447852 0 0 Z M-28 34 C-33.16897932 42.73321016 -34.37469782 52.33615258 -34.3125 62.3125 C-34.30831055 63.23313232 -34.30412109 64.15376465 -34.29980469 65.10229492 C-34.15563436 73.81156288 -32.87741117 81.35421091 -28.93457031 89.16674805 C-28.57276672 89.8851738 -28.21096313 90.60359955 -27.8381958 91.34379578 C-27.56159119 91.89034317 -27.28498657 92.43689056 -27 93 C-20.00779391 93.17792768 -13.01617425 93.30025694 -6.0222168 93.38452148 C-3.64471624 93.41965856 -1.26736623 93.46737953 1.10961914 93.52807617 C4.533093 93.61328709 7.95456307 93.65275737 11.37890625 93.68359375 C12.9652462 93.73778725 12.9652462 93.73778725 14.58363342 93.79307556 C19.94702906 93.79590984 23.14520088 93.51699061 27.06665039 89.66333008 C28.08060264 88.47208261 29.06126547 87.25137811 30 86 C30.45810059 85.41524399 30.91620117 84.83048798 31.38818359 84.22801208 C32.62554832 82.61049372 33.75698858 80.9520683 34.875 79.25 C35.29209229 78.61803711 35.70918457 77.98607422 36.13891602 77.33496094 C44.12389739 64.86134493 53.01567293 49.235094 52 34 C41.92602329 37.45192209 36.35039065 46.99967245 31.04296875 55.66796875 C29.65220219 57.93627444 28.24585868 60.11654851 26.73828125 62.30078125 C24.81952205 64.74516203 24.81952205 64.74516203 25 67 C18.97707487 70.1153061 13.73282853 70.70314232 7 70 C2.95470435 67.97735218 0.31586259 65.85770694 -2 62 C-2.82294821 58.97321157 -3.33478041 55.90040349 -3.875 52.8125 C-5.67934308 43.46936674 -8.04887068 35.01182949 -16 29 C-21.31799466 27.86851177 -24.66634641 29.96006388 -28 34 Z M-97 151 C-97.61875 151.45503906 -98.2375 151.91007812 -98.875 152.37890625 C-118.00748202 167.21543744 -126.34452911 192.74329537 -129.7149353 215.68280029 C-130.56005138 222.55247842 -130.54103186 229.4636914 -130.5 236.375 C-130.49757294 237.21481415 -130.49514587 238.0546283 -130.49264526 238.91989136 C-130.33751494 266.99518621 -124.74908135 294.01263554 -119.24633789 321.4465332 C-115.08351454 342.24454744 -111.12692824 363.24725893 -110.68359375 384.5078125 C-110.66281265 385.35930878 -110.64203156 386.21080505 -110.62062073 387.08810425 C-110.55604249 389.76699983 -110.49667417 392.44598017 -110.4375 395.125 C-110.39422718 396.95834156 -110.35061035 398.79167503 -110.30664062 400.625 C-110.20045751 405.08324993 -110.09894159 409.54158372 -110 414 C-105.50461754 412.60383631 -101.37162303 410.83606843 -97.140625 408.77734375 C-96.51017273 408.47180069 -95.87972046 408.16625763 -95.23016357 407.85145569 C-93.23508862 406.88356503 -91.24253171 405.91061371 -89.25 404.9375 C-87.89729769 404.28026488 -86.54443455 403.62336064 -85.19140625 402.96679688 C-79.08415371 400.00688172 -79.08415371 400.00688172 -73 397 C-63.13824312 395.68464345 -56.34945497 398.55438587 -47.7890625 403.16015625 C-46.56638781 403.7929042 -45.34234756 404.42301961 -44.11703491 405.05064392 C-40.92266294 406.69299147 -37.74256043 408.36099358 -34.56628418 410.0380249 C-29.46582848 412.72969153 -24.35269276 415.39595429 -19.22419357 418.03378105 C-17.44538291 418.95641104 -15.67758086 419.90016663 -13.9100647 420.84425354 C-12.82808807 421.40491013 -11.74611145 421.96556671 -10.63134766 422.54321289 C-9.6860318 423.04285049 -8.74071594 423.5424881 -7.76675415 424.05726624 C-3.4494396 425.52833232 -0.41879188 424.60387115 3.69082642 422.85472107 C5.05550552 422.13857384 5.05550552 422.13857384 6.44775391 421.40795898 C7.48968903 420.86747421 8.53162415 420.32698944 9.60513306 419.77012634 C11.27399063 418.89198021 11.27399063 418.89198021 12.9765625 417.99609375 C14.75197452 417.08231382 16.52740245 416.16856345 18.3037014 415.25650883 C22.6630153 413.01609549 27.01423305 410.76061628 31.35302734 408.48071289 C33.79163527 407.20026152 36.23641442 405.93330665 38.6890564 404.6799469 C40.98999335 403.5033957 43.28140967 402.30797088 45.56118774 401.09092712 C53.38557483 397.12777876 60.40012628 395.27372994 69.08666992 397.54579163 C70.8815918 398.23754883 70.8815918 398.23754883 74.19921875 399.95703125 C74.80457962 400.26066086 75.40994049 400.56429047 76.03364563 400.87712097 C77.93057434 401.83347931 79.80885645 402.82078432 81.6875 403.8125 C84.18658171 405.09940041 86.6921386 406.37329644 89.19921875 407.64453125 C90.36501465 408.2370166 91.53081055 408.82950195 92.73193359 409.43994141 C96.75491331 411.36036875 100.72511794 412.7541243 105 414 C104.97643433 412.77373901 104.97643433 412.77373901 104.95239258 411.52270508 C104.40397033 378.31886173 108.83860901 346.94569873 114.98779297 314.38671875 C116.36556805 307.07782387 117.69381997 299.76035817 118.99569702 292.43759155 C119.35821934 290.40651574 119.72725113 288.3767081 120.09692383 286.34692383 C122.82627063 271.03165374 124.35580596 256.12090034 124.31567383 240.56152344 C124.31250189 238.0015236 124.33614036 235.44267198 124.36132812 232.8828125 C124.46043804 207.05724655 118.61179746 179.00741951 99.98828125 159.93359375 C99.33214844 159.29550781 98.67601562 158.65742188 98 158 C97.154375 157.113125 96.30875 156.22625 95.4375 155.3125 C94.2309375 154.1678125 94.2309375 154.1678125 93 153 C92.49984375 152.49339844 91.9996875 151.98679688 91.484375 151.46484375 C47.23378814 109.23439238 -51.66041992 114.77428822 -97 151 Z " fill="#dfb682" transform="translate(259,20)"/>
<path d="M0 0 C3.73900977 4.86328247 5.10132035 8.19756568 4.890625 14.28515625 C3.00825494 22.13662085 -1.93523295 28.7570515 -6.31982422 35.43603516 C-8.38243495 38.58359952 -10.3791949 41.76961742 -12.37548828 44.95947266 C-13.83301257 47.28269604 -15.30393222 49.59698144 -16.77734375 51.91015625 C-19.16902261 55.67387583 -21.52984585 59.45563004 -23.87890625 63.24609375 C-24.54237061 64.31504883 -25.20583496 65.38400391 -25.8894043 66.48535156 C-27.17892011 68.56493959 -28.4657017 70.64622647 -29.74926758 72.72949219 C-40.24568635 89.63163617 -40.24568635 89.63163617 -46 92 C-51.32965848 92.79622085 -56.3180205 92.69818017 -61.3125 90.625 C-68.53762698 83.56789923 -73.47678137 74.13678507 -78.6875 65.5625 C-80.0970991 63.25406905 -81.50925263 60.94720686 -82.921875 58.640625 C-83.26991684 58.07185135 -83.61795868 57.5030777 -83.97654724 56.91706848 C-87.08118348 51.85068619 -90.25164662 46.82801356 -93.4375 41.8125 C-94.38950594 40.29698996 -95.34133432 38.78136836 -96.29296875 37.265625 C-98.06372475 34.45223873 -99.88066202 31.67855787 -101.73828125 28.921875 C-106.11128294 22.29546406 -109.02126567 16.88860364 -108.70703125 8.68359375 C-106.16812497 -0.95302842 -96.68178411 -6.26180058 -88.59375 -10.9921875 C-58.90104548 -26.57416983 -25.14138934 -23.00086857 0 0 Z M-69 17 C-65.49836134 23.71859126 -61.72092539 30.23744094 -57.75 36.6875 C-57.31381348 37.40679687 -56.87762695 38.12609375 -56.42822266 38.8671875 C-55.34141544 40.61418891 -54.1771776 42.31257096 -53 44 C-52.34 44 -51.68 44 -51 44 C-49.69051265 42.15698988 -48.47607791 40.24622385 -47.3046875 38.3125 C-46.95238068 37.73540283 -46.60007385 37.15830566 -46.23709106 36.5637207 C-45.10954292 34.7132121 -43.99221888 32.8567593 -42.875 31 C-42.11394505 29.74699241 -41.35223468 28.49438266 -40.58984375 27.2421875 C-38.7189254 24.16604445 -36.85713111 21.08449095 -35 18 C-38.71996239 14.01193836 -42.36463644 13.14574224 -47.76953125 12.6640625 C-49.11693703 12.63500081 -50.46478329 12.62243292 -51.8125 12.625 C-52.51375 12.62371094 -53.215 12.62242187 -53.9375 12.62109375 C-59.69381041 12.73813518 -64.13537463 13.97312199 -69 17 Z " fill="#dfb682" transform="translate(308,276)"/>
<path d="M0 0 C4.8846525 2.26787438 7.73212562 5.1153475 10 10 C10.75381535 15.5997712 10.77303575 20.33499991 8.375 25.5 C3.80134327 30.3143755 0.6912538 32.25156236 -6 32.5 C-12.6912538 32.25156236 -15.80134327 30.3143755 -20.375 25.5 C-22.77303575 20.33499991 -22.75381535 15.5997712 -22 10 C-17.52212837 0.3553534 -9.85292056 -1.32635469 0 0 Z " fill="#dfb682" transform="translate(342,224)"/>
<path d="M0 0 C4.8846525 2.26787438 7.73212562 5.1153475 10 10 C10.75381535 15.5997712 10.77303575 20.33499991 8.375 25.5 C3.80134327 30.3143755 0.6912538 32.25156236 -6 32.5 C-12.6912538 32.25156236 -15.80134327 30.3143755 -20.375 25.5 C-22.77303575 20.33499991 -22.75381535 15.5997712 -22 10 C-17.52212837 0.3553534 -9.85292056 -1.32635469 0 0 Z " fill="#dfb682" transform="translate(182,224)"/>
</svg>
